<?xml version="1.0" encoding="utf-8"?>
<!-- Generator: Adobe Illustrator 24.0.3, SVG Export Plug-In . SVG Version: 6.00 Build 0)  -->
<svg version="1.1" id="圖層_1" xmlns="http://www.w3.org/2000/svg" xmlns:xlink="http://www.w3.org/1999/xlink" x="0px" y="0px"
	 viewBox="0 0 14.6 17.6" style="enable-background:new 0 0 14.6 17.6;" xml:space="preserve">
<style type="text/css">
	.st0{clip-path:url(#SVGID_2_);}
	.st1{fill:none;stroke:#352D39;stroke-linecap:round;stroke-linejoin:round;}
</style>
<g>
	<defs>
		<rect id="SVGID_1_" x="-1.7" y="-0.2" width="18" height="18"/>
	</defs>
	<clipPath id="SVGID_2_">
		<use xlink:href="#SVGID_1_"  style="overflow:visible;"/>
	</clipPath>
	<g class="st0">
		<path class="st1" d="M14.1,7.3c0,5.3-6.8,9.8-6.8,9.8s-6.8-4.5-6.8-9.8c0-1.8,0.7-3.5,2-4.8s3-2,4.8-2s3.5,0.7,4.8,2
			C13.4,3.8,14.1,5.5,14.1,7.3z"/>
		<path class="st1" d="M7.3,9.6c1.2,0,2.3-1,2.3-2.3s-1-2.2-2.3-2.2c-1.2,0-2.2,1-2.2,2.2S6.1,9.6,7.3,9.6z"/>
	</g>
</g>
</svg>
