<?xml version="1.0" encoding="utf-8"?>
<!-- Generator: Adobe Illustrator 24.0.3, SVG Export Plug-In . SVG Version: 6.00 Build 0)  -->
<svg version="1.1" id="圖層_1" xmlns="http://www.w3.org/2000/svg" xmlns:xlink="http://www.w3.org/1999/xlink" x="0px" y="0px"
	 viewBox="0 0 19 19" style="enable-background:new 0 0 19 19;" xml:space="preserve">
<style type="text/css">
	.st0{stroke:#000000;stroke-miterlimit:10;}
</style>
<path class="st0" d="M17.8,0.5H1.2c-0.4,0-0.7,0.3-0.7,0.7v16.6c0,0.4,0.3,0.7,0.7,0.7h16.6c0.4,0,0.7-0.3,0.7-0.7V1.2
	C18.5,0.8,18.2,0.5,17.8,0.5z M15.7,5.8h-1.4c-1.1,0-1.3,0.5-1.3,1.3v1.7h2.7l-0.4,2.7H13v7h-2.8v-7H7.9V8.8h2.3v-2
	c0-2.3,1.4-3.6,3.5-3.6c1,0,1.8,0.1,2.1,0.1L15.7,5.8L15.7,5.8z"/>
</svg>
