<?xml version="1.0" encoding="utf-8"?>
<!-- Generator: Adobe Illustrator 24.0.3, SVG Export Plug-In . SVG Version: 6.00 Build 0)  -->
<svg version="1.1" id="圖層_1" xmlns="http://www.w3.org/2000/svg" xmlns:xlink="http://www.w3.org/1999/xlink" x="0px" y="0px"
	 viewBox="0 0 18 18" style="enable-background:new 0 0 18 18;" xml:space="preserve">
<path d="M18,4.6C18,4.6,18,4.5,18,4.6c0-0.6-0.1-1.2-0.2-1.7l0,0c-0.2-1-0.8-1.8-1.6-2.3l0,0c-0.4-0.3-0.9-0.5-1.4-0.5l0,0
	C14.4,0.1,14,0,13.6,0h0c0,0-0.1,0-0.1,0h-9C4.4,0,4.3,0,4.1,0C3.6,0,3,0.1,2.5,0.3l0,0c-1,0.4-1.7,1.1-2.1,2.1l0,0
	c-0.1,0.3-0.2,0.7-0.3,1l0,0C0,3.7,0,4,0,4.3v0c0,0,0,0,0,0.1v9.2c0,0.1,0,0.2,0,0.3c0,0.6,0.2,1.3,0.4,1.8l0,0
	c0.5,1,1.3,1.8,2.4,2.1l0,0c0.3,0.1,0.6,0.1,1,0.2l0,0c0.4,0,0.8,0,1.3,0h8.3c0.4,0,0.8,0,1.2-0.1l0,0c0.6-0.1,1.2-0.3,1.7-0.6l0,0
	c0.6-0.4,1.1-1,1.4-1.6l0,0c0.1-0.3,0.2-0.6,0.3-1l0,0c0.1-0.4,0.1-0.9,0.1-1.3c0-0.1,0-0.1,0-0.2v0C18,10.3,18,7.4,18,4.6L18,4.6z
	 M13.2,7.6v4.3c0,0,0,0,0,0.1c0,0.3-0.1,0.6-0.2,0.9l0,0c-0.2,0.4-0.6,0.7-1,0.9l0,0c-0.2,0.1-0.5,0.1-0.8,0.1h0c0,0,0,0-0.1,0
	c-0.8,0-1.4-0.6-1.4-1.4c0-0.6,0.3-1,0.8-1.3l0,0c0.2-0.1,0.5-0.2,0.7-0.2l0,0c0.3-0.1,0.6-0.1,0.9-0.2c0.2,0,0.4-0.2,0.4-0.4v0
	c0,0,0-0.1,0-0.1c0,0,0,0,0,0c0-1.4,0-2.7,0-4.1c0,0,0-0.1,0-0.1l0,0c0-0.1-0.1-0.2-0.2-0.2c0,0,0,0,0,0h0c-0.1,0-0.3,0-0.4,0.1l0,0
	c-0.6,0.1-1.1,0.2-1.7,0.3L7.4,6.7c0,0,0,0,0,0C7.2,6.7,7.1,6.9,7.1,7c0,0,0,0,0,0v0v0.1c0,2,0,3.9,0,5.9c0,0,0,0,0,0.1
	c0,0.3-0.1,0.6-0.2,0.9l0,0c-0.2,0.5-0.6,0.8-1.1,0.9l0,0C5.6,14.9,5.3,15,5,15h0c0,0-0.1,0-0.1,0c-0.7,0-1.3-0.5-1.4-1.2l0,0
	c0-0.1,0-0.2,0-0.3c0-0.6,0.4-1.1,0.9-1.3l0,0C4.7,12.2,5,12.1,5.2,12l0,0c0.2,0,0.4-0.1,0.6-0.1c0.3,0,0.4-0.3,0.4-0.5c0,0,0,0,0,0
	v0v-0.1c0-2.2,0-4.4,0-6.7c0,0,0,0,0,0c0-0.1,0-0.2,0-0.3l0,0c0-0.2,0.2-0.3,0.4-0.4l0,0c0.2,0,0.4-0.1,0.6-0.1
	C7.9,3.7,8.5,3.6,9,3.5l1.7-0.3c0.5-0.1,1-0.2,1.5-0.3c0.1,0,0.3-0.1,0.5-0.1l0,0c0,0,0,0,0,0c0.2,0,0.4,0.2,0.4,0.4
	c0,0.1,0,0.1,0,0.2v0C13.2,4.7,13.2,6.1,13.2,7.6L13.2,7.6z"/>
</svg>
