<svg width="80" height="80" viewBox="0 0 80 80" fill="none" xmlns="http://www.w3.org/2000/svg">
<path d="M40 0C17.9107 0 0 17.9107 0 40C0 62.0893 17.9107 80 40 80C62.0893 80 80 62.0893 80 40C80 17.9107 62.0893 0 40 0ZM52.8661 40.6161L33.3661 54.8036C33.2592 54.8804 33.1332 54.9263 33.0019 54.9361C32.8706 54.946 32.7392 54.9195 32.622 54.8595C32.5048 54.7995 32.4064 54.7084 32.3376 54.5961C32.2689 54.4839 32.2324 54.3549 32.2321 54.2232V25.8661C32.2317 25.7342 32.2678 25.6047 32.3364 25.4921C32.4051 25.3794 32.5036 25.288 32.621 25.2279C32.7384 25.1678 32.8702 25.1414 33.0017 25.1516C33.1332 25.1618 33.2593 25.2082 33.3661 25.2857L52.8661 39.4643C52.9582 39.5294 53.0333 39.6157 53.0852 39.7159C53.1371 39.8162 53.1642 39.9273 53.1642 40.0402C53.1642 40.153 53.1371 40.2642 53.0852 40.3644C53.0333 40.4646 52.9582 40.5509 52.8661 40.6161Z" fill="white" fill-opacity="0.8"/>
</svg>
