<svg width="25" height="22" viewBox="0 0 25 22" fill="none" xmlns="http://www.w3.org/2000/svg">
<path d="M12.0002 18.166C12.0002 13.651 15.6518 9.99935 20.1668 9.99935C21.4268 9.99935 22.6052 10.291 23.6668 10.7927V2.99935C23.6668 1.71602 22.6168 0.666016 21.3335 0.666016H2.66683C1.3835 0.666016 0.333496 1.71602 0.333496 2.99935V16.9993C0.333496 18.2827 1.3835 19.3327 2.66683 19.3327H12.0935C12.0352 18.9477 12.0002 18.5627 12.0002 18.166ZM2.66683 2.99935L12.0002 8.83268L21.3335 2.99935V5.33268L12.0002 11.166L2.66683 5.33268V2.99935ZM18.2302 21.666L14.1002 17.536L15.7452 15.891L18.2185 18.3643L23.1652 13.4177L24.8335 15.0627L18.2302 21.666Z" fill="#352D39"/>
</svg>
