<?xml version="1.0" encoding="utf-8"?>
<!-- Generator: Adobe Illustrator 24.0.3, SVG Export Plug-In . SVG Version: 6.00 Build 0)  -->
<svg version="1.1" id="圖層_1" xmlns="http://www.w3.org/2000/svg" xmlns:xlink="http://www.w3.org/1999/xlink" x="0px" y="0px"
	 viewBox="0 0 18 18" style="enable-background:new 0 0 18 18;" xml:space="preserve">
<path d="M9,0C4.1,0,0,4.1,0,9c0,5,4.1,9,9,9c5,0,9-4,9-9C18,4.1,13.9,0,9,0z M12.5,13.5c-0.2,0-0.2-0.1-0.4-0.2
	c-1.2-0.7-2.8-1.2-4.5-1.2c-0.9,0-1.9,0.2-2.7,0.3c-0.2,0-0.3,0.1-0.4,0.1c-0.3,0-0.6-0.2-0.6-0.6c0-0.3,0.2-0.6,0.5-0.6
	c1.1-0.2,2.1-0.4,3.3-0.4c1.9,0,3.6,0.5,5.1,1.3c0.2,0.2,0.3,0.2,0.3,0.6C13,13.3,12.8,13.5,12.5,13.5z M13.5,11.2
	c-0.2,0-0.3-0.1-0.5-0.2c-1.4-0.9-3.4-1.4-5.6-1.4c-1.1,0-2.1,0.2-2.8,0.3C4.4,10,4.4,10,4.2,10c-0.4,0-0.7-0.3-0.7-0.7
	s0.2-0.6,0.6-0.7c1-0.2,2-0.5,3.4-0.5c2.3,0,4.5,0.6,6.3,1.7c0.2,0.2,0.4,0.4,0.4,0.7C14.1,10.9,13.9,11.2,13.5,11.2z M14.5,8.6
	c-0.2,0-0.2-0.1-0.5-0.2c-1.6-0.9-4-1.5-6.4-1.5c-1.2,0-2.4,0.2-3.5,0.4c-0.2,0-0.2,0.1-0.5,0.1C3.2,7.5,2.9,7.1,2.9,6.6
	s0.2-0.7,0.6-0.8c1.3-0.3,2.7-0.5,4.2-0.5c2.6,0,5.2,0.6,7.3,1.7c0.2,0.2,0.5,0.4,0.5,0.8C15.4,8.2,15,8.6,14.5,8.6z"/>
</svg>
