<svg width="25" height="45" viewBox="0 0 25 45" fill="none" xmlns="http://www.w3.org/2000/svg">
<path d="M1 12C1 5.64873 6.14873 0.5 12.5 0.5C18.8513 0.5 24 5.64872 24 12V23.7736C24 30.1249 18.8513 35.2736 12.5 35.2736C6.14873 35.2736 1 30.1249 1 23.7736V12Z" stroke="white"/>
<circle cx="12.5001" cy="11.5522" r="3.34906" stroke="white"/>
<path d="M13.2266 20.375C13.2266 20.0989 13.0027 19.875 12.7266 19.875C12.4504 19.875 12.2266 20.0989 12.2266 20.375L13.2266 20.375ZM12.373 44.7286C12.5683 44.9238 12.8849 44.9238 13.0801 44.7286L16.2621 41.5466C16.4574 41.3513 16.4574 41.0347 16.2621 40.8395C16.0668 40.6442 15.7503 40.6442 15.555 40.8395L12.7266 43.6679L9.89813 40.8395C9.70287 40.6442 9.38629 40.6442 9.19103 40.8395C8.99577 41.0347 8.99577 41.3513 9.19103 41.5466L12.373 44.7286ZM12.2266 20.375L12.2266 44.375L13.2266 44.375L13.2266 20.375L12.2266 20.375Z" fill="white"/>
</svg>
