<?xml version="1.0" encoding="utf-8"?>
<!-- Generator: Adobe Illustrator 24.0.3, SVG Export Plug-In . SVG Version: 6.00 Build 0)  -->
<svg version="1.1" id="圖層_1" xmlns="http://www.w3.org/2000/svg" xmlns:xlink="http://www.w3.org/1999/xlink" x="0px" y="0px"
	 viewBox="0 0 16.8 16.7" style="enable-background:new 0 0 16.8 16.7;" xml:space="preserve">
<style type="text/css">
	.st0{fill:none;stroke:#000000;stroke-linecap:round;stroke-linejoin:round;}
</style>
<path class="st0" d="M10.3,3.5c0.7,0.1,1.4,0.5,1.9,1s0.9,1.2,1,1.9 M10.3,0.5c1.5,0.2,2.9,0.9,4,1.9c1.1,1.1,1.8,2.5,1.9,4
	 M15.5,12.4v2.2c0,0.2,0,0.4-0.1,0.6c-0.1,0.2-0.2,0.4-0.4,0.5c-0.2,0.1-0.3,0.2-0.5,0.3c-0.2,0.1-0.4,0.1-0.6,0.1
	c-2.3-0.3-4.5-1-6.5-2.3C5.6,12.7,4,11.2,2.9,9.4c-1.3-2-2.1-4.2-2.3-6.5c0-0.2,0-0.4,0.1-0.6S0.8,1.9,1,1.7
	c0.1-0.1,0.3-0.3,0.5-0.4s0.4-0.1,0.6-0.1h2.3c0.4,0,0.7,0.1,1,0.4c0.3,0.2,0.5,0.6,0.5,0.9C6,3.2,6.2,3.9,6.4,4.6
	c0.1,0.3,0.1,0.6,0.1,0.8C6.4,5.7,6.2,6,6,6.2l-1,1c1.1,1.9,2.6,3.4,4.5,4.5l1-1c0.2-0.2,0.5-0.3,0.7-0.4c0.3-0.1,0.6,0,0.8,0.1
	c0.7,0.3,1.4,0.4,2.1,0.5c0.4,0.1,0.7,0.2,0.9,0.5C15.4,11.7,15.5,12,15.5,12.4z"/>
</svg>
