<?xml version="1.0" encoding="utf-8"?>
<!-- Generator: Adobe Illustrator 24.0.3, SVG Export Plug-In . SVG Version: 6.00 Build 0)  -->
<svg version="1.1" id="圖層_1" xmlns="http://www.w3.org/2000/svg" xmlns:xlink="http://www.w3.org/1999/xlink" x="0px" y="0px"
	 viewBox="0 0 32 32" style="enable-background:new 0 0 32 32;" xml:space="preserve">
<path d="M32,6.8c0,2.2,0,4.4,0,6.6c0,0.1,0,0.2-0.2,0.3c-1.3,0.8-2.5,1.6-3.8,2.4c-0.4,0.2-0.4,0.1-0.3,0.6c0.1,0.8,0.1,1.5,0.1,2.3
	c0,0.5-0.1,1.1-0.2,1.6c-0.1,0.6-0.2,1.2-0.4,1.7c-0.2,0.7-0.5,1.3-0.8,2c-0.5,1.1-1.2,2.1-2,3c-0.9,1-1.9,1.8-3,2.6
	c-0.7,0.4-1.3,0.8-2.1,1.1c-0.7,0.3-1.5,0.6-2.2,0.7c-0.6,0.1-1.3,0.2-1.9,0.3C14.5,32,13.9,32,13.2,32c-0.6,0-1.2-0.1-1.8-0.2
	c-0.7-0.1-1.3-0.3-2-0.5c-0.5-0.2-1-0.4-1.5-0.6c-1.2-0.6-2.3-1.3-3.4-2.2c-1-0.9-1.8-1.9-2.5-3c-0.7-1.1-1.2-2.2-1.5-3.4
	c-0.2-0.7-0.4-1.4-0.4-2.2C0,19.2,0,18.4,0,17.7c0-0.6,0.1-1.2,0.2-1.7c0.1-0.6,0.2-1.1,0.4-1.6c0.2-0.6,0.4-1.3,0.7-1.9
	c0.5-1.2,1.3-2.4,2.2-3.4C4.5,7.8,5.8,6.8,7.3,6C8.1,5.6,9,5.2,9.9,4.9c1-0.3,1.9-0.5,2.9-0.5c1.1-0.1,2.2,0,3.3,0.1
	c0.8,0.1,1.6,0.3,2.4,0.6c1,0.3,1.9,0.8,2.7,1.3c0.1,0.1,0.2,0.1,0.3,0C23.3,5.3,25.2,4.2,27,3c1.6-1,3.2-2,4.8-3c0,0,0.1,0,0.1,0
	c0,0,0,0.1,0,0.1C32,2.3,32,4.6,32,6.8z M13.9,29.2c1.1,0,2.1-0.1,3.1-0.4c0.8-0.2,1.5-0.5,2.3-0.9c2.2-1.2,3.8-3,4.8-5.2
	c0.6-1.4,0.9-2.9,0.9-4.4c0-0.1,0-0.1,0-0.2c-0.1,0-0.1,0-0.2,0c-1.3,0.8-2.6,1.6-3.9,2.4c-1.4,0.9-2.8,1.7-4.2,2.6
	c-1.5,0.9-3,1.8-4.4,2.7c-0.1,0.1-0.1,0-0.1-0.1c0,0,0-0.1,0-0.1c0-4.3,0-8.7,0-13c0-0.1,0-0.1,0-0.2c0-0.1,0.1-0.2,0.1-0.2
	c0.7-0.5,1.4-0.9,2.1-1.3c1.3-0.8,2.7-1.6,4-2.5c0,0,0.1-0.1,0.1-0.1c0,0-0.1-0.1-0.1-0.1C18,8,17.5,7.8,17.1,7.6
	c-0.8-0.3-1.7-0.4-2.5-0.5c-1.3-0.1-2.6,0.1-3.9,0.5C9.7,7.9,8.8,8.3,8,8.9C6.5,9.8,5.4,11,4.5,12.4c-0.7,1.1-1.2,2.3-1.4,3.5
	c-0.2,0.9-0.3,1.8-0.2,2.8c0,0.4,0.1,0.9,0.1,1.3c0.2,1,0.5,2,0.9,2.9c0.9,1.8,2.1,3.2,3.8,4.4c1.3,0.9,2.7,1.4,4.2,1.7
	C12.5,29.1,13.2,29.2,13.9,29.2z M14.7,17.4c0,1.1,0,2.1,0,3.2c0,0.1,0,0.1,0,0.2c0.1,0,0.1,0,0.2-0.1c0.9-0.6,1.9-1.1,2.8-1.7
	c1.7-1,3.3-2.1,5-3.1c0.5-0.3,1.1-0.7,1.6-1c0.1-0.1,0.1-0.1,0.1-0.3c-0.1-0.3-0.2-0.6-0.4-0.9c-0.6-1.4-1.5-2.6-2.6-3.7
	c-0.1-0.1-0.1-0.1-0.2,0c-0.5,0.3-0.9,0.6-1.4,0.8c-0.8,0.5-1.6,1-2.5,1.5c-0.8,0.5-1.7,1-2.5,1.5c-0.1,0.1-0.1,0.2-0.1,0.3
	C14.7,15.3,14.7,16.3,14.7,17.4z M29.4,8.4c0-1,0-1.9,0-2.9c0-0.1,0-0.2,0-0.3c0-0.1,0-0.1-0.1-0.1c-0.1,0.1-0.3,0.2-0.4,0.2
	c-1,0.6-2,1.2-3,1.8c-0.7,0.4-1.3,0.8-2,1.2c-0.2,0.1-0.2,0.1,0,0.3c0.3,0.3,0.6,0.7,0.9,1c0.9,1.1,1.5,2.2,2,3.5
	c0.1,0.2,0.1,0.2,0.2,0.1c0.7-0.4,1.4-0.9,2.2-1.3c0.2-0.1,0.2-0.2,0.2-0.4C29.4,10.4,29.4,9.4,29.4,8.4z"/>
</svg>
