<?xml version="1.0" encoding="utf-8"?>
<!-- Generator: Adobe Illustrator 24.0.3, SVG Export Plug-In . SVG Version: 6.00 Build 0)  -->
<svg version="1.1" id="圖層_1" xmlns="http://www.w3.org/2000/svg" xmlns:xlink="http://www.w3.org/1999/xlink" x="0px" y="0px"
	 viewBox="0 0 23 16" style="enable-background:new 0 0 23 16;" xml:space="preserve">
<path d="M22.5,2.5c-0.1-0.5-0.4-0.9-0.7-1.3c-0.4-0.3-0.8-0.6-1.3-0.7c-1.8-0.5-9-0.5-9-0.5s-7.2,0-9,0.5C2,0.6,1.6,0.9,1.2,1.2
	C0.9,1.6,0.6,2,0.5,2.5C0,4.3,0,8,0,8s0,3.7,0.5,5.5c0.3,1,1,1.8,2,2c1.8,0.5,9,0.5,9,0.5s7.2,0,9-0.5c1-0.3,1.8-1,2-2
	C23,11.7,23,8,23,8S23,4.3,22.5,2.5z M9.2,11.4V4.6l6,3.4L9.2,11.4z"/>
</svg>
